<svg width="83" height="74" viewBox="0 0 83 74" fill="none" xmlns="http://www.w3.org/2000/svg">
<path d="M48.2776 23.9798H67.033V21.7252L62.421 20.5175C62.421 20.5175 60.9969 3.91053 46.1632 0C46.1632 0 58.6547 5.53564 59.88 20.6714H58.2969C58.2969 20.6714 57.0788 7.74921 45.2632 4.12607C45.2632 4.12607 55.1451 9.82936 55.7415 20.6646H54.1583C54.1583 20.6646 53.4427 11.4066 43.9764 8.33767C43.9764 8.33767 51.0246 12.953 51.6174 20.8219L48.2812 21.8791V23.9832L48.2776 23.9798Z" fill="white"/>
<path d="M35.0306 23.9798H16.2753V21.7252L20.8873 20.5175C20.8873 20.5175 22.3078 3.91053 37.1451 0C37.1451 0 24.6536 5.53564 23.4283 20.6714H25.0114C25.0114 20.6714 26.2295 7.74921 38.0451 4.12607C38.0451 4.12607 28.1632 9.82936 27.5668 20.6646H29.1499C29.1499 20.6646 29.8656 11.4066 39.3318 8.33767C39.3318 8.33767 32.2836 12.953 31.6909 20.8219L35.027 21.8791V23.9832L35.0306 23.9798Z" fill="white"/>
<path d="M60.0716 38.9961C60.0463 35.2361 60.0174 31.4727 59.9921 27.7127C60.7872 27.1105 61.5824 26.5084 62.3776 25.9062C62.3523 31.1682 62.3306 36.4267 62.3053 41.6886C61.521 42.1402 60.9065 42.3866 60.7909 42.4311C60.6246 42.4961 60.3824 42.5987 60.0752 42.7527V40.2449V39.5469V38.9995L60.0716 38.9961Z" fill="white"/>
<path d="M58.4017 28.917C58.4234 33.8334 58.4415 38.7463 58.4632 43.6627C58.4596 43.6627 58.4523 43.6696 58.4487 43.673C57.9716 43.9741 57.18 44.5078 56.5511 45.1134C56.4427 45.2194 56.3415 45.3255 56.2439 45.435V41.1036C56.2222 37.5934 56.2005 34.0831 56.1788 30.5729C56.9198 30.0221 57.6608 29.4712 58.4053 28.917H58.4017Z" fill="white"/>
<path d="M60.0499 52.2876H60.0354V52.3868H62.2727V47.0257V43.707L60.0643 44.9284L60.0499 52.2842V52.2876Z" fill="white"/>
<path d="M56.5583 52.2913V52.3871H58.4487V46.4375C56.6559 47.9155 56.5656 50.1838 56.5656 50.1838L56.5583 52.2913Z" fill="white"/>
<path d="M51.9752 44.607V52.387H54.2776V52.2844H54.274V51.9457C54.274 45.2708 54.274 38.5992 54.274 31.9243C53.533 32.4751 52.7921 33.026 52.0475 33.5802C52.0258 37.2547 52.0005 40.9326 51.9788 44.607H51.9752Z" fill="white"/>
<path d="M51.0897 52.387V52.3596C51.0897 52.0107 51.1041 51.6001 51.1547 51.1417C51.1547 51.1417 51.2126 50.5908 51.321 50.04C51.6463 48.4046 52.4162 46.8719 52.4162 46.8719C53.1499 45.4076 54.0535 44.3162 54.78 43.5738C55.015 43.3582 55.286 43.129 55.5933 42.9032C55.9764 42.6192 56.3487 42.39 56.6884 42.2018L58.9149 41.1618C59.1752 41.0318 59.4354 40.8983 59.6993 40.7649C60.0643 40.5767 60.4294 40.392 60.7872 40.2038C60.9607 40.1149 61.8354 39.6496 62.6595 39.0919C62.9667 38.8832 63.8342 38.2879 64.6005 37.4942C65.1788 36.8989 66.1113 35.763 66.7221 33.9497C67.0619 34.9624 67.0691 35.8109 67.0005 36.413C66.5378 40.4604 61.5932 42.4448 61.2354 42.5816C60.8776 42.7185 60.1619 43.0469 59.2186 43.6251C58.6764 43.957 57.8161 44.4804 56.9957 45.2639C55.3981 46.7898 54.78 48.5107 54.4258 49.5302C54.1872 50.2145 53.9198 51.1861 53.8041 52.3904H66.5848V55.6236H47.9379V52.3904H51.0861L51.0897 52.387Z" fill="white"/>
<path d="M23.2367 38.9961C23.262 35.2361 23.2909 31.4727 23.3162 27.7127C22.521 27.1105 21.7258 26.5084 20.9307 25.9062C20.956 31.1682 20.9777 36.4267 21.003 41.6886C21.7873 42.1403 22.4017 42.3866 22.5174 42.4311C22.6837 42.4961 22.9258 42.5987 23.2331 42.7527V40.2449V39.5469V38.9995L23.2367 38.9961Z" fill="white"/>
<path d="M24.9065 28.917C24.8849 33.8334 24.8668 38.7463 24.8451 43.6627C24.8487 43.6627 24.8559 43.6696 24.8596 43.673C25.3367 43.9741 26.1282 44.5078 26.7571 45.1134C26.8656 45.2194 26.9668 45.3255 27.0644 45.435V41.1036C27.086 37.5934 27.1077 34.0831 27.1294 30.5729C26.3885 30.0221 25.6475 29.4712 24.9029 28.917H24.9065Z" fill="white"/>
<path d="M23.2547 52.2876H23.2692V52.3868H21.0319V47.0257V43.707L23.2403 44.9284L23.2547 52.2842V52.2876Z" fill="white"/>
<path d="M26.75 52.2913V52.3871H24.8596V46.4375C26.6524 47.9155 26.7427 50.1838 26.7427 50.1838L26.75 52.2913Z" fill="white"/>
<path d="M31.333 44.607V52.387H29.0306V52.2844H29.0343V51.9457C29.0343 45.2708 29.0343 38.5992 29.0343 31.9243C29.7752 32.4751 30.5162 33.026 31.2608 33.5802C31.2824 37.2547 31.3077 40.9326 31.3294 44.607H31.333Z" fill="white"/>
<path d="M32.2186 52.387V52.3596C32.2186 52.0107 32.2042 51.6001 32.1536 51.1417C32.1536 51.1417 32.0957 50.5908 31.9873 50.04C31.662 48.4046 30.8921 46.8719 30.8921 46.8719C30.1584 45.4076 29.2548 44.3162 28.5283 43.5738C28.2933 43.3582 28.0222 43.129 27.715 42.9032C27.3319 42.6192 26.9596 42.39 26.6198 42.2018L24.3933 41.1618C24.1331 41.0318 23.8729 40.8983 23.609 40.7649C23.2439 40.5767 22.8789 40.392 22.5211 40.2038C22.3476 40.1149 21.4729 39.6496 20.6488 39.0919C20.3415 38.8832 19.4741 38.2879 18.7078 37.4942C18.1295 36.8989 17.197 35.763 16.5861 33.9497C16.2464 34.9624 16.2391 35.8109 16.3078 36.413C16.7705 40.4604 21.715 42.4448 22.0729 42.5816C22.4307 42.7185 23.1464 43.0469 24.0897 43.6251C24.6319 43.957 25.4921 44.4804 26.3126 45.2639C27.9102 46.7898 28.5283 48.5107 28.8825 49.5302C29.121 50.2145 29.3885 51.1861 29.5042 52.3904H16.7235V55.6236H35.3704V52.3904H32.2222L32.2186 52.387Z" fill="white"/>
<path d="M65.1499 58.1548H18.1584V58.3258H65.1499V58.1548Z" fill="white"/>
<path d="M12.2611 69.72C12.6117 71.5333 13.4538 72.9121 15.2141 72.83V72.936C13.0743 73.5211 10.9671 72.4639 10.3815 69.7234L9.81408 66.6751L7.66348 70.0964C7.66348 70.0964 7.23698 70.7464 7.22252 71.2528H7.11409L4.27313 66.3056L3.71289 70.4967C3.68036 70.7327 3.92615 70.9448 4.15747 70.9448H4.33458V71.0441H1.94182V70.938H2.12615C2.52374 70.938 2.87073 70.7122 2.95386 70.3256L3.73097 65.3408C3.15265 64.3965 2.10085 63.0177 0.846638 63.1238L0.824951 63.0177C2.9141 62.2103 4.50084 63.5172 5.35747 64.8652L7.6418 68.7929L10.9599 63.572H11.0647L12.2611 69.7234V69.72Z" fill="white"/>
<path d="M21.4453 70.3255C21.6947 70.7531 22.0851 70.931 22.4212 70.931H22.5152V71.0371H18.8682V70.9345H18.9694C19.2658 70.9345 19.5875 70.695 19.4104 70.2776L18.8465 68.9843H16.161L15.5754 70.2776C15.3875 70.695 15.7164 70.9345 16.0128 70.9345H16.114V71.0371H13.6598V70.931H13.761C14.0863 70.931 14.4803 70.7565 14.7224 70.3426L17.3682 64.8719C17.4513 64.7111 17.9032 63.8045 17.9321 63.5H18.0369L21.4417 70.3255H21.4453ZM18.6586 68.543L17.5381 65.9736L16.367 68.543H18.6586Z" fill="white"/>
<path d="M26.6211 63.709C28.009 63.709 29.3428 64.2256 29.3428 65.6831C29.3428 66.5658 28.7681 67.5545 27.4705 67.6708C27.9548 67.8145 28.3849 68.2319 28.638 68.598C28.6741 68.6493 29.3608 69.6449 29.791 70.1376C30.2861 70.7124 30.6114 70.9245 31.2078 70.9313V71.0374H30.0946C28.844 71.0374 27.9729 70.7671 27.4054 69.9528C27.1054 69.5081 26.5777 68.4714 26.4512 68.1601C26.238 67.7187 25.9741 67.4998 25.6777 67.4553V67.3561H26.0283C26.6428 67.3492 27.2681 67.0618 27.4741 66.1449C27.4994 66.0184 27.5247 65.8507 27.5175 65.6386C27.4705 64.6362 26.9175 64.188 26.1657 64.1743C25.8621 64.164 25.4428 64.1743 25.2982 64.1709V70.2779C25.3054 70.6439 25.6307 70.9347 26.0319 70.9347H26.1729V71.0408H22.6958V70.9347H22.844C23.2416 70.9347 23.5669 70.6439 23.5777 70.2813V64.4753C23.5705 64.1093 23.2452 63.8185 22.844 63.8185H22.6994V63.7158H26.6247L26.6211 63.709Z" fill="white"/>
<path d="M39.8608 67.9823C39.5029 70.0419 38.6102 70.7433 36.8499 70.7433C35.1439 70.7022 34.074 69.4124 34.074 67.3391C34.074 65.2658 35.1837 64.0034 36.9981 64.0034C38.256 64.0034 39.2391 64.5508 39.6584 65.9261H39.7523L39.7307 64.1299C39.08 63.822 38.1041 63.562 36.8861 63.562C33.9801 63.562 32.209 65.0195 32.209 67.3631C32.209 69.7066 34.0415 71.1744 36.8536 71.1846C38.5813 71.1846 39.5572 70.5585 40.0704 69.7853L39.9584 67.9823H39.8644H39.8608Z" fill="white"/>
<path d="M46.2982 66.3641C45.7669 65.3001 46.2657 63.7502 48.2247 63.5655C50.2849 63.3636 52.8114 64.7287 52.8114 67.2981C52.8114 69.6451 50.7765 71.1847 47.8452 71.1847C44.9139 71.1847 42.8428 69.6349 42.8428 67.3152C42.8428 65.567 44.0211 64.2053 45.8319 63.7503L45.9006 63.8495C45.0946 64.4721 44.7223 65.7756 44.7223 67.0347C44.7223 69.3304 45.9982 70.7434 47.8379 70.7434C49.6777 70.7434 50.9247 69.3885 50.9247 67.2879C50.9247 65.4267 49.9343 63.9008 48.2066 64.0034C46.7247 64.0855 46.1283 65.2898 46.4211 66.3539L46.2946 66.3607L46.2982 66.3641Z" fill="white"/>
<path d="M62.715 63.7091V63.8152H62.5018C62.1186 63.8152 61.8078 64.0923 61.797 64.4413V69.8503C61.797 70.6407 61.9307 71.1846 61.9307 71.1846H61.8259L56.0428 66.1485V70.302C56.05 70.6509 56.3644 70.9349 56.7476 70.9349H56.9572V71.041H53.491V70.9349H53.7042C54.091 70.9349 54.4018 70.6509 54.409 70.302V64.8621C54.409 64.0855 54.2753 63.5552 54.2753 63.5552H54.3873L60.1632 68.5879V64.4481C60.156 64.0957 59.8415 63.8152 59.4584 63.8152H59.2488V63.7091H62.7186H62.715Z" fill="white"/>
<path d="M67.0053 71.0374H63.5282V70.9313H63.6764C64.0776 70.9313 64.4029 70.6371 64.4101 70.2744V64.4685C64.3993 64.1058 64.0776 63.815 63.6764 63.815H63.5318V63.709H67.0053V63.815H66.8571C66.4595 63.815 66.1342 64.1059 66.1234 64.4651V70.2744C66.1306 70.6405 66.4559 70.9313 66.8571 70.9313H67.0017V71.0374H67.0053Z" fill="white"/>
<path d="M75.7306 67.9823L75.8426 69.7853C75.3294 70.5585 74.3535 71.1846 72.6258 71.1846C69.8137 71.1744 67.9812 69.7545 67.9812 67.3631C67.9812 64.9716 69.7487 63.562 72.6583 63.562C73.8764 63.562 74.8559 63.822 75.5029 64.1299L75.5246 65.9261H75.4306C75.0149 64.5508 74.0318 64.0034 72.7703 64.0034C70.9559 64.0034 69.8463 65.2829 69.8463 67.3391C69.8463 69.3953 70.9197 70.7022 72.6222 70.7433C74.3824 70.7433 75.2752 70.0419 75.633 67.9823H75.727H75.7306Z" fill="white"/>
<path d="M81.4523 67.281C82.1499 67.6504 82.5294 68.2355 82.4788 69.0155C82.4101 70.3806 81.286 71.1812 79.4535 71.1812C78.427 71.1812 77.4655 70.9383 77.0462 70.5449C76.8583 70.1069 77.0173 69.2242 77.3173 68.7692H77.4185C77.3282 69.8606 78.2029 70.7604 79.5764 70.7399C80.5703 70.7228 81.1595 70.2198 81.1595 69.563C81.1595 69.1387 80.8884 68.8 80.245 68.4818L78.2499 67.2707C77.433 66.8499 77.0716 66.1554 77.1547 65.3924C77.2523 64.3079 78.1197 63.5586 79.5655 63.5586C79.9342 63.5586 80.6029 63.6065 81.1233 63.6647H81.8426L81.6944 65.2042H81.586C81.586 64.4789 80.939 63.9999 79.974 63.9999C79.074 63.9999 78.5029 64.4447 78.4776 65.0058C78.4487 65.4164 78.7884 65.7174 79.2764 65.9774L81.4595 67.2741L81.4523 67.281Z" fill="white"/>
</svg>
