<svg width="63" height="73" viewBox="0 0 63 73" fill="none" xmlns="http://www.w3.org/2000/svg">
<g clip-path="url(#clip0_178_399)">
<path d="M14.229 36.5281C14.229 29.4844 14.1755 22.4407 14.2758 15.3969C14.2959 14.1439 14.6238 12.5653 15.3933 11.7512C16.1159 10.9866 17.6549 10.6398 18.7456 10.8026C20.5456 11.0716 21.1612 12.7069 21.3151 14.5262C21.6228 18.179 21.382 22.0372 22.4526 25.4281C23.7306 29.4632 25.7313 33.4275 28.1803 36.8113C32.5765 42.9064 35.1526 49.4688 35.1259 57.1496C35.1125 60.9228 35.1459 64.696 35.1192 68.4692C35.0991 71.2442 33.7675 72.8441 31.5795 72.8299C29.4717 72.8087 28.1535 71.3362 28.1134 68.6391C28.0465 63.6908 28.1134 58.7425 28.0799 53.7941C28.0599 50.8563 26.8621 49.3909 24.6339 49.4405C22.4191 49.49 21.3284 50.9625 21.3151 53.9357C21.3084 55.2808 21.3284 56.6187 21.3151 57.9637C21.2682 60.7529 19.9835 62.4732 17.8958 62.5581C15.8148 62.6431 14.2624 60.7529 14.2424 57.9142C14.2022 52.2934 14.229 46.6796 14.229 41.0588C14.229 39.5509 14.229 38.0431 14.229 36.5281Z" fill="white" stroke="#231F20" stroke-width="0.5" stroke-miterlimit="10"/>
<path d="M48.9367 36.5073C48.9367 43.6431 48.9434 50.7718 48.9367 57.9075C48.9367 60.7604 47.7189 62.4311 45.6178 62.5443C43.5502 62.6576 41.9443 60.81 42.0179 57.9146C42.1919 50.6585 40.5659 44.0324 36.6247 38.0081C34.2092 34.3198 31.7869 30.5608 29.9535 26.5328C27.7788 21.7544 28.0599 16.4167 28.1 11.2136C28.1201 8.94824 28.0532 6.68292 28.1201 4.4176C28.2071 1.59303 29.552 0.0851725 31.7869 0.18428C33.8545 0.26923 35.1125 1.84788 35.1259 4.50255C35.1526 9.37299 35.1259 14.2364 35.1393 19.1068C35.146 22.0446 36.3102 23.5454 38.5251 23.5596C40.7332 23.5737 41.9041 22.1013 41.9778 19.1493C42.0179 17.6414 41.9242 16.1265 42.0179 14.6186C42.1718 12.0843 43.7041 10.3924 45.6312 10.4844C47.672 10.5764 48.93 12.1976 48.9367 14.8593C48.9568 22.08 48.9367 29.2937 48.9367 36.5144V36.5073Z" fill="white" stroke="#231F20" stroke-width="0.5" stroke-miterlimit="10"/>
<path d="M0.384773 36.2522C0.384773 32.656 0.358008 29.0528 0.391464 25.4566C0.424921 22.5612 1.85686 20.8268 4.0516 20.8976C6.15935 20.9684 7.44408 22.6178 7.45746 25.4495C7.49092 32.8189 7.49092 40.1811 7.45746 47.5505C7.44408 50.3822 6.15935 52.0458 4.05829 52.1236C1.88362 52.2086 0.424921 50.4317 0.391464 47.5576C0.351317 43.7915 0.384773 40.0254 0.384773 36.2593V36.2522Z" fill="white" stroke="#231F20" stroke-width="0.5" stroke-miterlimit="10"/>
<path d="M62.7676 36.6203C62.7676 40.3935 62.7877 44.1596 62.7676 47.9328C62.7543 50.4671 61.329 52.159 59.335 52.1165C57.4079 52.0741 56.0094 50.4883 55.9961 48.0673C55.9559 40.3581 55.9559 32.6489 55.9961 24.9468C56.0094 22.4904 57.3611 20.9471 59.3216 20.8976C61.3558 20.848 62.7543 22.4975 62.7676 25.0601C62.7944 28.9111 62.7676 32.7693 62.7676 36.6203Z" fill="white" stroke="#231F20" stroke-width="0.5" stroke-miterlimit="10"/>
</g>
<defs>
<clipPath id="clip0_178_399">
<rect width="62.7375" height="73" fill="white" transform="translate(0.204102)"/>
</clipPath>
</defs>
</svg>
