<svg width="217" height="47" viewBox="0 0 217 47" fill="none" xmlns="http://www.w3.org/2000/svg">
<g clip-path="url(#clip0_103_97)">
<path d="M11.1168 14.3989V36.9817H30.5772V47H0.986328V3.83673H30.5772V14.3989H11.1168Z" fill="white"/>
<path d="M68.9534 4.56211V46.354H67.3336L44.4081 23.7478V46.354H35.0796V1.41187L44.4081 10.4022L61.1017 26.4893V4.56211H68.9534Z" fill="white"/>
<path d="M83.8458 4.56213H74.8459V46.354H83.8458V4.56213Z" fill="white"/>
<path d="M171.072 0.575549V44.6156H161.253V22.2655L150.958 32.6066L139.324 21.6148V44.6156H130.16V0L150.616 20.1184L161.253 9.95816L171.072 0.575549Z" fill="white"/>
<path d="M217 45.8583H207.501L197.263 24.2975L187.032 45.8583H177.161L192.096 13.4091L197.389 1.90753L202.477 13.3104L217 45.8583Z" fill="white"/>
<path d="M126.481 25.458C126.481 37.3543 117.718 47 106.91 47C96.1026 47 87.3396 37.3543 87.3396 25.458C87.3396 13.5618 96.1026 3.91608 106.91 3.91608C111.953 3.91608 116.548 6.01389 120.016 9.46248L113.206 16.604C113.206 16.604 113.197 16.6087 113.193 16.6087C96.9563 10.1931 97.2742 25.0939 97.3191 26.1886C97.3233 26.2333 97.3233 26.2779 97.3191 26.3225C96.7215 35.3457 106.62 36.9596 106.643 36.9643C114.898 35.1132 115.163 31.0538 115.163 30.5346V30.4806L106.643 30.6638L115.652 20.7573L125.934 20.3909C126.293 22.0165 126.483 23.7102 126.483 25.458H126.481Z" fill="white"/>
<path d="M23.0322 27.429C20.3132 27.1377 17.6711 26.3413 15.2168 25.1479C12.7603 23.9522 10.4853 22.3618 8.46419 20.466C4.42631 16.6815 1.37655 11.6401 0 6.11487C1.88876 11.4499 5.31199 15.9274 9.42671 19.0283C13.5393 22.1363 18.401 23.8887 23.1538 23.8277L23.03 27.4266L23.0322 27.429Z" fill="#0598CE"/>
<path d="M22.0333 20.9006L29.0932 25.9396L21.7131 30.2315L22.0333 20.9006Z" fill="#0598CE"/>
<path d="M21.1264 28.4744C19.6453 28.4462 18.1684 28.1455 16.7321 27.7085C15.2915 27.2716 13.8958 26.649 12.5576 25.8973C11.8854 25.5238 11.2472 25.0821 10.6091 24.6428C10.2954 24.4126 9.99874 24.1542 9.69141 23.9123L9.23683 23.5434L8.80999 23.1323C8.52828 22.8551 8.24017 22.5873 7.96486 22.3031L7.19015 21.3939C7.06423 21.2389 6.93404 21.0909 6.81453 20.9311L6.47092 20.4355C6.2447 20.1042 6.02274 19.7683 5.80933 19.4324C6.0889 19.7072 6.36422 19.9844 6.63526 20.2663L7.03648 20.6892C7.17521 20.8231 7.32247 20.9476 7.46546 21.0768L8.31059 21.8567L9.19415 22.5779C10.3808 23.5176 11.6143 24.3797 12.9183 25.0962C14.2074 25.8409 15.5476 26.4799 16.9178 27.0437C18.2901 27.5958 19.6901 28.0773 21.1264 28.4767V28.4744Z" fill="#0598CE"/>
<path d="M1.07129 5.76721C2.5076 8.16337 3.95671 10.4985 5.55308 12.6996C6.347 13.8037 7.20068 14.8468 8.07996 15.864C8.97846 16.8624 9.93457 17.788 10.9526 18.6853C9.76811 18.1121 8.6626 17.3111 7.65953 16.3808C6.665 15.4388 5.75797 14.3863 4.93204 13.2634C4.12318 12.1264 3.37621 10.9354 2.72742 9.68329C2.07863 8.43353 1.49599 7.13443 1.07342 5.76721H1.07129Z" fill="#0598CE"/>
</g>
<defs>
<clipPath id="clip0_103_97">
<rect width="217" height="47" fill="white"/>
</clipPath>
</defs>
</svg>
