<svg xmlns="http://www.w3.org/2000/svg" viewBox="0 0 383.05 213.65"><defs><style>.cls-1{fill:#fff;}.cls-2{fill:#f3b835;}</style></defs><g id="Layer_2" data-name="Layer 2"><g id="Layer_1-2" data-name="Layer 1"><path class="cls-1" d="M369.34,213.65c-21.93-14.88-45.82-65.41-7.83-130.42C378.74,51.5,398.72,6.07,363.86.58,326.26-7.25,82.64,64.43,0,174.88c36-4.31,114-71.68,148.44-84.6,77.55-39.17,235-112.8,211.11-42.7C340,95,282.39,180.36,369.34,213.65"/><path class="cls-2" d="M369.34,213.65c-21.93-14.88-45.82-65.41-7.83-130.42C378.74,51.5,398.72,6.07,363.86.58,326.26-7.25,82.64,64.43,0,174.88c36-4.31,114-71.68,148.44-84.6,77.55-39.17,235-112.8,211.11-42.7C340,95,282.39,180.36,369.34,213.65"/><path class="cls-1" d="M317.25,145.5a29.33,29.33,0,0,0,3.92,14.1H286.31c-.39-1.57-1.18-3.13-1.18-5.09,0-1.57-.39-3.53-.39-5.09h-.39a22.42,22.42,0,0,1-9.79,10.18,34.17,34.17,0,0,1-14.49,2.74c-10.19,0-17.24-2.35-21.55-7.05s-6.65-11.75-6.65-21.15c0-5.09.39-9.79,1.95-13.31s2.75-6.27,5.1-8.62a20.82,20.82,0,0,1,7.83-5.09,39.94,39.94,0,0,1,9.79-2.74l17.23-3.53c3.92-.78,6.66-2,7.84-3.13,1.56-1.18,2.35-3.53,2.35-6.66a7.75,7.75,0,0,0-2-5.48,7.43,7.43,0,0,0-5.09-2,14.63,14.63,0,0,0-4.7.78c-1.18.78-2.35,1.57-2.74,2.74s-1.18,2.35-1.18,3.53-.39,2.74-.39,3.91H235.39c0-11,3.13-18.8,9.79-24.28,6.66-5.09,17.24-7.83,32.12-7.83,8.22,0,15.27.78,20.76,2.35a41.3,41.3,0,0,1,12.53,5.87c2.74,2.74,5.09,5.49,5.88,9A31.58,31.58,0,0,1,318,90.28V145.5ZM284,113.38a34.83,34.83,0,0,1-3.92,2,44.14,44.14,0,0,0-5.09,2c-3.13,1.18-5.09,2.74-5.88,4.7a22.89,22.89,0,0,0-1.17,7.44c0,2.74.39,5.09,2,7.05a5.91,5.91,0,0,0,5.48,2.74,7.07,7.07,0,0,0,4.31-1.17,9.18,9.18,0,0,0,2.74-2.74,6.37,6.37,0,0,0,1.18-3.53c0-1.17.39-2.74.39-4.31v-14.1Z"/><path class="cls-1" d="M79.9,129.05a17.4,17.4,0,0,0,.78,5.09,6.59,6.59,0,0,0,1.18,3.92c.39,1.17,1.56,2,2.74,2.74s2.74.78,5.09.78a11.66,11.66,0,0,0,3.92-.78A6.67,6.67,0,0,0,96,138.45a19.19,19.19,0,0,0,1.17-2.74,17.15,17.15,0,0,1,.39-2,7.65,7.65,0,0,0-.39-3.13,5.13,5.13,0,0,0-2-2.35,13.81,13.81,0,0,0-4.3-2.35c-2-.79-4.7-1.57-7.84-2.74-5.87-2-11-3.53-15.66-5.49a63.75,63.75,0,0,1-10.58-5.87A23.1,23.1,0,0,1,50.52,104a29,29,0,0,1-2-11,31.75,31.75,0,0,1,2.35-12.93,26.38,26.38,0,0,1,7-10.18A34.6,34.6,0,0,1,70.5,63.25,63.62,63.62,0,0,1,88.91,60.9c10.18,0,18,1.18,23.89,3.13,5.48,2.35,9.79,5.1,12.14,8.23a20.65,20.65,0,0,1,4.7,9.79,81.06,81.06,0,0,1,.78,8.23H99.09a13.37,13.37,0,0,0-.39-3.92,4.4,4.4,0,0,0-1.18-3.13c-1.17-2-3.91-2.75-7.44-2.75A10.88,10.88,0,0,0,85,81.66a5.61,5.61,0,0,0-2.74,5.09,4.44,4.44,0,0,0,1.17,3.13,10.17,10.17,0,0,0,4.31,2.75A61.15,61.15,0,0,0,96,95.76c3.52,1.17,8.22,2.74,13.71,4.31a65.51,65.51,0,0,1,7.83,3.13,29.91,29.91,0,0,1,7.44,4.7c2.35,2,3.92,4.7,5.48,7.83s2.35,7.45,2.35,12.54c0,5.87-1.17,11-3.52,14.88a31.83,31.83,0,0,1-9,10.18,36.72,36.72,0,0,1-13.32,5.49,73.6,73.6,0,0,1-16.45,1.56,83.72,83.72,0,0,1-18-1.56,32.13,32.13,0,0,1-12.93-5.09,26.45,26.45,0,0,1-8.22-10.19c-2-4.31-2.74-9.79-3.14-16.45H80.29v2Z"/><path class="cls-1" d="M224.42,145.5a29.33,29.33,0,0,0,3.92,14.1H193.48a10.88,10.88,0,0,1-1.17-5.09c0-1.57-.39-3.53-.39-5.09h-.4a22.42,22.42,0,0,1-9.79,10.18,34.17,34.17,0,0,1-14.49,2.74c-10.18,0-17.23-2.35-21.54-7.05S139,143.54,139,134.14a43.22,43.22,0,0,1,2-13.31,21.18,21.18,0,0,1,12.92-13.71,40,40,0,0,1,9.8-2.74L181,100.85c3.92-.78,6.66-2,7.83-3.13,1.57-1.18,2.35-3.53,2.35-6.66a7.71,7.71,0,0,0-2-5.48,7.41,7.41,0,0,0-5.09-2,14.68,14.68,0,0,0-4.7.78c-1.17.78-2.35,1.57-2.74,2.74s-1.17,2.35-1.17,3.53-.4,2.74-.4,3.91h-32.5c0-11,3.13-18.8,9.79-24.28,6.66-5.09,17.23-7.83,32.11-7.83,8.23,0,15.28.78,20.76,2.35a41.48,41.48,0,0,1,12.54,5.87c2.74,2.74,5.09,5.49,5.87,9a31.33,31.33,0,0,1,1.57,10.58l-.79,55.22Zm-33.29-32.12a34.62,34.62,0,0,1-3.91,2,44.23,44.23,0,0,0-5.1,2C179,118.48,177,120,176.25,122a22.89,22.89,0,0,0-1.18,7.44c0,2.74.4,5.09,2,7.05a5.94,5.94,0,0,0,5.49,2.74,7,7,0,0,0,4.3-1.17,9.21,9.21,0,0,0,2.75-2.74c.39-1.18,1.17-2.35,1.17-3.53s.39-2.74.39-4.31v-14.1Z"/><path class="cls-1" d="M58.75,201.12l-2.74,11H47.39l11.36-42.3h11l11.35,42.3h-9l-2.75-11Zm9.4-7.44-2.35-9c-.78-2.74-1.18-5.49-2-8.23h0c-.39,2.74-1.17,5.49-1.57,8.23l-2.35,9Z"/><path class="cls-1" d="M85.38,203.47a14,14,0,0,0,7.44,2.35c2.75,0,3.53-1.18,3.53-2.74s-.78-2.35-3.92-3.53c-5.48-2.35-7.83-5.48-7.83-9.4,0-5.48,4.31-10.18,11-10.18a15.38,15.38,0,0,1,7.83,2l-1.57,6.65a11.55,11.55,0,0,0-5.87-2c-2,0-3.14.78-3.14,2.74,0,1.56,1.18,2.35,4.31,3.52,5.09,2,7.44,5.09,7.44,9.4,0,5.49-3.91,9.79-11.75,9.79-3.52,0-6.65-.78-8.61-2.35Z"/><path class="cls-1" d="M109.27,203.47a14,14,0,0,0,7.45,2.35c2.74,0,3.52-1.18,3.52-2.74s-.78-2.35-3.92-3.53c-5.48-2.35-7.83-5.48-7.83-9.4,0-5.48,4.31-10.18,11-10.18a15.38,15.38,0,0,1,7.83,2l-1.57,6.65c-1.17-.39-3.52-1.56-5.87-1.56-2,0-3.13.78-3.13,2.74,0,1.57,1.17,2.35,4.3,3.52,5.1,2,7.45,5.1,7.45,9.4,0,5.49-3.92,9.8-11.75,9.8-3.53,0-6.66-.79-8.62-2.35Z"/><path class="cls-1" d="M158.62,201.9v9.79h-7.44l-.39-4.31h0c-1.17,2-3.52,5.1-8.22,5.1-5.49,0-9.4-3.92-9.4-13.32v-18h8.22v16.45c0,4.31,1.18,7,4.31,7,2.35,0,3.52-2,4.31-3.13a17.15,17.15,0,0,0,.39-2v-18h8.22V201.9Z"/><path class="cls-1" d="M165.28,190.93V180.75h7.44l.4,5.48h0c1.56-4.7,4.7-6.26,7.44-6.26h2v9h-2.35c-3.14,0-5.1,2-5.49,5.09v18h-8.61V190.93Z"/><path class="cls-1" d="M200.92,211.69l-.39-3.13h0a10.23,10.23,0,0,1-7.83,3.92c-5.48,0-8.62-4.7-8.62-9.4,0-7.84,6.27-11.75,15.67-11.75v-.4c0-1.56-.78-3.91-5.09-3.91a15.12,15.12,0,0,0-7.44,2.35l-1.57-6.27a19.92,19.92,0,0,1,10.18-2.74c9,0,11.75,5.87,11.75,13.32v10.57a40.53,40.53,0,0,0,.39,7.44Zm-1.17-14.49c-4.31,0-7.83,1.18-7.83,5.09a3.2,3.2,0,0,0,3.13,3.53,4.59,4.59,0,0,0,4.31-3.53V197.2Z"/><path class="cls-1" d="M214.63,190.93v-9.79h7.44l.4,4.31h0c1.17-2,3.91-5.09,8.22-5.09,5.48,0,9.79,4.31,9.79,12.92v18h-8.22V194.46c0-3.92-1.18-6.66-4.31-6.66-2.35,0-3.53,2-4.31,3.53,0,.39-.39,1.56-.39,2.35V211.3h-8.62V190.93Z"/><path class="cls-1" d="M266.72,210.91a17.57,17.57,0,0,1-7.44,1.57c-8.61,0-14.1-5.88-14.1-15.67,0-9,5.49-16.45,15.28-16.45a14.92,14.92,0,0,1,6.26,1.17l-1.17,7.05a12.81,12.81,0,0,0-4.7-.78c-4.31,0-7.44,3.53-7.05,8.62,0,5.48,3.13,8.61,7.44,8.61a14.63,14.63,0,0,0,4.7-.78Z"/><path class="cls-1" d="M277.3,199.55c.39,3.92,3.52,5.88,7.83,5.88a22.89,22.89,0,0,0,7.44-1.18l1.18,6.66a24.28,24.28,0,0,1-9.79,2c-9,0-14.49-5.88-14.49-15.67,0-7.83,4.3-16.45,13.7-16.45,8.62,0,12.15,7.83,12.15,15.28a10.67,10.67,0,0,1-.4,3.91H277.3Zm9.79-6.66c0-2.35-.78-6.26-4.7-6.26-3.52,0-5.09,3.52-5.09,6.26Z"/><path class="cls-1" d="M299.62,203.47a14,14,0,0,0,7.45,2.35c2.74,0,3.52-1.18,3.52-2.74s-.78-2.35-3.92-3.53c-5.48-2.35-7.83-5.48-7.83-9.4,0-5.48,4.31-10.18,11-10.18a15.38,15.38,0,0,1,7.83,2l-1.57,6.65a11.55,11.55,0,0,0-5.87-2c-2,0-3.13.78-3.13,2.74,0,1.56,1.17,2.35,4.3,3.52,5.1,2,7.45,5.09,7.45,9.4,0,5.49-3.92,9.79-11.75,9.79-3.53,0-6.66-.78-8.62-2.35Z"/></g></g></svg>